<svg width="67" height="68" viewBox="0 0 67 68" fill="none" xmlns="http://www.w3.org/2000/svg">
<path d="M4.5 6H62.5" stroke="black" stroke-width="8" stroke-linecap="round"/>
<path d="M4.5 6L62.5 6" stroke="white" stroke-width="4" stroke-linecap="round"/>
<path d="M8.5 12.5L8.5 55" stroke="black" stroke-width="8" stroke-linecap="square"/>
<path d="M8.5 12L8.5 55" stroke="white" stroke-width="4" stroke-linecap="square"/>
<path d="M58.5 13L58.5 55" stroke="black" stroke-width="8" stroke-linecap="square"/>
<path d="M58.5 12L58.5 55" stroke="white" stroke-width="4" stroke-linecap="square"/>
<mask id="path-7-inside-1_3_31" fill="white">
<rect x="1.5" y="57" width="64" height="7" rx="1"/>
</mask>
<rect x="1.5" y="57" width="64" height="7" rx="1" fill="white" stroke="black" stroke-width="4" mask="url(#path-7-inside-1_3_31)"/>
<mask id="path-8-inside-2_3_31" fill="white">
<rect x="50.5" y="62" width="13" height="6" rx="1"/>
</mask>
<rect x="50.5" y="62" width="13" height="6" rx="1" fill="white" stroke="black" stroke-width="4" mask="url(#path-8-inside-2_3_31)"/>
<mask id="path-9-inside-3_3_31" fill="white">
<rect x="3.5" y="62" width="13" height="6" rx="1"/>
</mask>
<rect x="3.5" y="62" width="13" height="6" rx="1" fill="white" stroke="black" stroke-width="4" mask="url(#path-9-inside-3_3_31)"/>
<path d="M27.5 1H40.5C41.6046 1 42.5 1.89543 42.5 3V12H25.5V3C25.5 1.89543 26.3954 1 27.5 1Z" fill="white" stroke="black" stroke-width="2"/>
<path d="M27.5 18L40.5 18" stroke="black" stroke-width="2" stroke-linecap="round"/>
<path d="M25.5 13L27.5 18" stroke="black" stroke-width="2" stroke-linecap="round"/>
<path d="M43.4285 13.3714C43.6336 12.8586 43.3842 12.2766 42.8714 12.0715C42.3586 11.8664 41.7766 12.1158 41.5715 12.6286L43.4285 13.3714ZM41.4285 18.3714L43.4285 13.3714L41.5715 12.6286L39.5715 17.6286L41.4285 18.3714Z" fill="black"/>
<line x1="31.5" y1="18" x2="31.5" y2="22" stroke="black" stroke-width="2"/>
<line x1="36.5" y1="18" x2="36.5" y2="22" stroke="black" stroke-width="2"/>
<path d="M33.5 24C33.1686 24.4418 33.2582 25.0686 33.7 25.4C34.1418 25.7314 34.7686 25.6418 35.1 25.2L33.5 24ZM36.9001 22.8L37.5001 22L35.9001 20.7999L35.3001 21.5999L36.9001 22.8ZM35.1 25.2L36.9001 22.8L35.3001 21.5999L33.5 24L35.1 25.2Z" fill="black"/>
<path d="M32.9 25.2C33.2314 25.6418 33.8582 25.7314 34.3 25.4C34.7418 25.0686 34.8314 24.4418 34.5 24L32.9 25.2ZM32.6999 21.5999L32.0999 20.7999L30.4999 21.9999L31.0999 22.7999L32.6999 21.5999ZM34.5 24L32.6999 21.5999L31.0999 22.7999L32.9 25.2L34.5 24Z" fill="black"/>
<path d="M32.9 24.8C32.9 25.4075 33.3925 25.9 34 25.9C34.6075 25.9 35.1 25.4075 35.1 24.8H32.9ZM35.1 24.8V23.8H32.9V24.8H35.1Z" fill="black"/>
<mask id="path-19-inside-4_3_31" fill="white">
<path fill-rule="evenodd" clip-rule="evenodd" d="M44.4286 51C47.7817 51 50.5 47.9713 50.5 44.2353C50.5 40.9498 48.3978 38.2113 45.6103 37.5986C45.6318 37.3337 45.6429 37.0653 45.6429 36.7941C45.6429 31.9373 42.1091 28 37.75 28C35.1838 28 32.9037 29.3645 31.4621 31.4779C30.6197 30.9848 29.6605 30.7059 28.6429 30.7059C25.2897 30.7059 22.5714 33.7345 22.5714 37.4706C19.2183 37.4706 16.5 40.4993 16.5 44.2353C16.5 47.9713 19.2183 51 22.5714 51H44.4286Z"/>
</mask>
<path fill-rule="evenodd" clip-rule="evenodd" d="M44.4286 51C47.7817 51 50.5 47.9713 50.5 44.2353C50.5 40.9498 48.3978 38.2113 45.6103 37.5986C45.6318 37.3337 45.6429 37.0653 45.6429 36.7941C45.6429 31.9373 42.1091 28 37.75 28C35.1838 28 32.9037 29.3645 31.4621 31.4779C30.6197 30.9848 29.6605 30.7059 28.6429 30.7059C25.2897 30.7059 22.5714 33.7345 22.5714 37.4706C19.2183 37.4706 16.5 40.4993 16.5 44.2353C16.5 47.9713 19.2183 51 22.5714 51H44.4286Z" fill="white"/>
<path d="M45.6103 37.5986L43.6169 37.4364L43.4752 39.1771L45.1809 39.552L45.6103 37.5986ZM31.4621 31.4779L30.4519 33.204L32.0627 34.1466L33.1143 32.6049L31.4621 31.4779ZM22.5714 37.4706L22.5714 39.4706L24.5714 39.4706V37.4706H22.5714ZM48.5 44.2353C48.5 47.0756 46.4793 49 44.4286 49V53C49.0842 53 52.5 48.867 52.5 44.2353H48.5ZM45.1809 39.552C46.9323 39.937 48.5 41.7615 48.5 44.2353H52.5C52.5 40.138 49.8633 36.4857 46.0396 35.6453L45.1809 39.552ZM43.6429 36.7941C43.6429 37.0112 43.634 37.2254 43.6169 37.4364L47.6037 37.7609C47.6296 37.442 47.6429 37.1195 47.6429 36.7941H43.6429ZM37.75 30C40.8066 30 43.6429 32.833 43.6429 36.7941H47.6429C47.6429 31.0416 43.4116 26 37.75 26V30ZM33.1143 32.6049C34.2327 30.9653 35.9281 30 37.75 30V26C34.4395 26 31.5746 27.7637 29.8099 30.3509L33.1143 32.6049ZM28.6429 32.7059C29.2876 32.7059 29.9001 32.8811 30.4519 33.204L32.4723 29.7517C31.3392 29.0886 30.0334 28.7059 28.6429 28.7059V32.7059ZM24.5714 37.4706C24.5714 34.6302 26.5922 32.7059 28.6429 32.7059V28.7059C23.9872 28.7059 20.5714 32.8389 20.5714 37.4706H24.5714ZM18.5 44.2353C18.5 41.3949 20.5207 39.4706 22.5714 39.4706L22.5714 35.4706C17.9158 35.4706 14.5 39.6036 14.5 44.2353H18.5ZM22.5714 49C20.5207 49 18.5 47.0756 18.5 44.2353H14.5C14.5 48.867 17.9158 53 22.5714 53V49ZM44.4286 49H22.5714V53H44.4286V49Z" fill="black" mask="url(#path-19-inside-4_3_31)"/>
<line x1="34" y1="48" x2="34" y2="52" stroke="white" stroke-width="7"/>
<path d="M34.7071 37.2929C34.3166 36.9024 33.6834 36.9024 33.2929 37.2929L26.9289 43.6569C26.5384 44.0474 26.5384 44.6805 26.9289 45.0711C27.3195 45.4616 27.9526 45.4616 28.3431 45.0711L34 39.4142L39.6569 45.0711C40.0474 45.4616 40.6805 45.4616 41.0711 45.0711C41.4616 44.6805 41.4616 44.0474 41.0711 43.6569L34.7071 37.2929ZM35 57V38H33V57H35Z" fill="black"/>
<line x1="25.5" y1="57.25" x2="42.5" y2="57.25" stroke="black" stroke-width="1.5"/>
</svg>
