<svg width="66" height="68" viewBox="0 0 66 68" fill="none" xmlns="http://www.w3.org/2000/svg">
<mask id="path-1-inside-1_4_259" fill="white">
<path fill-rule="evenodd" clip-rule="evenodd" d="M24.1707 2C24.5825 0.834808 25.6938 0 27 0H40C41.3062 0 42.4175 0.834808 42.8293 2H62C64.2091 2 66 3.79086 66 6C66 8.20914 64.2091 10 62 10V13V55V57H64C64.5523 57 65 57.4477 65 58V63C65 63.5523 64.5523 64 64 64H63V67C63 67.5523 62.5523 68 62 68H51C50.4477 68 50 67.5523 50 67V64H16V67C16 67.5523 15.5523 68 15 68H4C3.44772 68 3 67.5523 3 67V64H2C1.44772 64 1 63.5523 1 63V58C1 57.4477 1.44772 57 2 57H4V55V12.5V10C1.79086 10 0 8.20914 0 6C0 3.79086 1.79086 2 4 2H24.1707ZM24 10H12V12.5V55V57H25V56.5H42V57H54V55V13V10H43V11V12.9773C43.003 13.1083 42.9802 13.242 42.9285 13.3714L41.5 16.9426V17H41.477L40.9371 18.3498C40.7953 18.7296 40.4292 19 40 19H37V21.9999L37.0001 22L37 22L36.4001 22.8L35.5 24L34.6 25.2C34.5533 25.2623 34.5007 25.3176 34.4436 25.3657C34.2513 25.6858 33.9007 25.9 33.5 25.9C33.0993 25.9 32.7487 25.6858 32.5564 25.3657C32.4993 25.3176 32.4467 25.2623 32.4 25.2L31.5 24L30.5999 22.7999L30 22L29.9999 21.9999L30 21.9999V19H27.0233C26.8143 19.0048 26.6102 18.9435 26.4397 18.8284C26.2691 18.7128 26.1361 18.5458 26.0629 18.3498L25.523 17H25.5V16.9426L24.0715 13.3714C24.0198 13.242 23.997 13.1083 24 12.9773V11V10Z"/>
</mask>
<path fill-rule="evenodd" clip-rule="evenodd" d="M24.1707 2C24.5825 0.834808 25.6938 0 27 0H40C41.3062 0 42.4175 0.834808 42.8293 2H62C64.2091 2 66 3.79086 66 6C66 8.20914 64.2091 10 62 10V13V55V57H64C64.5523 57 65 57.4477 65 58V63C65 63.5523 64.5523 64 64 64H63V67C63 67.5523 62.5523 68 62 68H51C50.4477 68 50 67.5523 50 67V64H16V67C16 67.5523 15.5523 68 15 68H4C3.44772 68 3 67.5523 3 67V64H2C1.44772 64 1 63.5523 1 63V58C1 57.4477 1.44772 57 2 57H4V55V12.5V10C1.79086 10 0 8.20914 0 6C0 3.79086 1.79086 2 4 2H24.1707ZM24 10H12V12.5V55V57H25V56.5H42V57H54V55V13V10H43V11V12.9773C43.003 13.1083 42.9802 13.242 42.9285 13.3714L41.5 16.9426V17H41.477L40.9371 18.3498C40.7953 18.7296 40.4292 19 40 19H37V21.9999L37.0001 22L37 22L36.4001 22.8L35.5 24L34.6 25.2C34.5533 25.2623 34.5007 25.3176 34.4436 25.3657C34.2513 25.6858 33.9007 25.9 33.5 25.9C33.0993 25.9 32.7487 25.6858 32.5564 25.3657C32.4993 25.3176 32.4467 25.2623 32.4 25.2L31.5 24L30.5999 22.7999L30 22L29.9999 21.9999L30 21.9999V19H27.0233C26.8143 19.0048 26.6102 18.9435 26.4397 18.8284C26.2691 18.7128 26.1361 18.5458 26.0629 18.3498L25.523 17H25.5V16.9426L24.0715 13.3714C24.0198 13.242 23.997 13.1083 24 12.9773V11V10Z" fill="white"/>
<path d="M24.1707 2V3H24.8779L25.1135 2.33325L24.1707 2ZM42.8293 2L41.8865 2.33325L42.1221 3H42.8293V2ZM62 10V9H61V10H62ZM62 57H61V58H62V57ZM63 64V63H62V64H63ZM50 64H51V63H50V64ZM16 64V63H15V64H16ZM3 64H4V63H3V64ZM4 57V58H5V57H4ZM4 10H5V9H4V10ZM12 10V9H11V10H12ZM24 10H25V9H24V10ZM12 57H11V58H12V57ZM25 57V58H26V57H25ZM25 56.5V55.5H24V56.5H25ZM42 56.5H43V55.5H42V56.5ZM42 57H41V58H42V57ZM54 57V58H55V57H54ZM54 10H55V9H54V10ZM43 10V9H42V10H43ZM43 12.9773H42V12.9889L42.0003 13.0005L43 12.9773ZM42.9285 13.3714L42 13L42 13L42.9285 13.3714ZM41.5 16.9426L40.5715 16.5712L40.5 16.75V16.9426H41.5ZM41.5 17V18H42.5V17H41.5ZM41.477 17V16H40.8L40.5486 16.6286L41.477 17ZM40.9371 18.3498L40.0086 17.9784L40.0043 17.9892L40.0003 18L40.9371 18.3498ZM37 19V18H36V19H37ZM37 21.9999H36V22.4941L36.3925 22.7943L37 21.9999ZM37.0001 22L37.5767 22.8169L38.6884 22.0322L37.6075 21.2056L37.0001 22ZM37 22L36.4233 21.183L36.2946 21.2739L36.2 21.4L37 22ZM36.4001 22.8L37.2001 23.4L37.2001 23.3999L36.4001 22.8ZM35.5 24L34.7 23.4L34.7 23.4L35.5 24ZM34.6 25.2L33.8 24.6L33.8 24.6L34.6 25.2ZM34.4436 25.3657L33.7995 24.6007L33.6721 24.708L33.5864 24.8507L34.4436 25.3657ZM32.5564 25.3657L33.4136 24.8507L33.3279 24.708L33.2005 24.6008L32.5564 25.3657ZM32.4 25.2L31.6 25.8L31.6 25.8L32.4 25.2ZM31.5 24L32.3 23.4L32.3 23.4L31.5 24ZM30.5999 22.7999L29.7999 23.3999L29.7999 23.4L30.5999 22.7999ZM30 22L30.8 21.4L30.747 21.3293L30.6823 21.2689L30 22ZM29.9999 21.9999L29.3915 21.2063L28.4541 21.925L29.3176 22.731L29.9999 21.9999ZM30 21.9999L30.6084 22.7935L31 22.4933V21.9999H30ZM30 19H31V18H30V19ZM27.0233 19V18H27.0117L27.0001 18.0003L27.0233 19ZM26.4397 18.8284L25.8786 19.6562L25.8801 19.6572L26.4397 18.8284ZM26.0629 18.3498L26.9997 18L26.9956 17.9891L26.9913 17.9784L26.0629 18.3498ZM25.523 17L26.4514 16.6286L26.2 16H25.523V17ZM25.5 17H24.5V18H25.5V17ZM25.5 16.9426H26.5V16.75L26.4285 16.5712L25.5 16.9426ZM24.0715 13.3714L25 13L25 13L24.0715 13.3714ZM24 12.9773L24.9997 13.0005L25 12.9889V12.9773H24ZM27 -1C25.2568 -1 23.7765 0.114513 23.2279 1.66675L25.1135 2.33325C25.3886 1.5551 26.1307 1 27 1V-1ZM40 -1H27V1H40V-1ZM43.7721 1.66675C43.2235 0.114514 41.7432 -1 40 -1V1C40.8692 1 41.6114 1.5551 41.8865 2.33325L43.7721 1.66675ZM62 1H42.8293V3H62V1ZM67 6C67 3.23858 64.7614 1 62 1V3C63.6569 3 65 4.34315 65 6H67ZM62 11C64.7614 11 67 8.76142 67 6H65C65 7.65685 63.6569 9 62 9V11ZM63 13V10H61V13H63ZM63 55V13H61V55H63ZM63 57V55H61V57H63ZM64 56H62V58H64V56ZM66 58C66 56.8954 65.1046 56 64 56V58H66ZM66 63V58H64V63H66ZM64 65C65.1046 65 66 64.1046 66 63H64V65ZM63 65H64V63H63V65ZM64 67V64H62V67H64ZM62 69C63.1046 69 64 68.1046 64 67H62V69ZM51 69H62V67H51V69ZM49 67C49 68.1046 49.8954 69 51 69V67H49ZM49 64V67H51V64H49ZM16 65H50V63H16V65ZM17 67V64H15V67H17ZM15 69C16.1046 69 17 68.1046 17 67H15V69ZM4 69H15V67H4V69ZM2 67C2 68.1046 2.89543 69 4 69V67H2ZM2 64V67H4V64H2ZM2 65H3V63H2V65ZM0 63C0 64.1046 0.89543 65 2 65V63H0ZM0 58V63H2V58H0ZM2 56C0.89543 56 0 56.8954 0 58H2V56ZM4 56H2V58H4V56ZM3 55V57H5V55H3ZM3 12.5V55H5V12.5H3ZM3 10V12.5H5V10H3ZM-1 6C-1 8.76142 1.23858 11 4 11V9C2.34315 9 1 7.65685 1 6H-1ZM4 1C1.23858 1 -1 3.23858 -1 6H1C1 4.34315 2.34315 3 4 3V1ZM24.1707 1H4V3H24.1707V1ZM12 11H24V9H12V11ZM13 12.5V10H11V12.5H13ZM13 55V12.5H11V55H13ZM13 57V55H11V57H13ZM25 56H12V58H25V56ZM24 56.5V57H26V56.5H24ZM42 55.5H25V57.5H42V55.5ZM43 57V56.5H41V57H43ZM54 56H42V58H54V56ZM53 55V57H55V55H53ZM53 13V55H55V13H53ZM53 10V13H55V10H53ZM43 11H54V9H43V11ZM44 11V10H42V11H44ZM44 12.9773V11H42V12.9773H44ZM43.857 13.7428C43.9598 13.4858 44.0058 13.2176 43.9997 12.9541L42.0003 13.0005L42 13L43.857 13.7428ZM42.4285 17.314L43.857 13.7428L42 13L40.5715 16.5712L42.4285 17.314ZM42.5 17V16.9426H40.5V17H42.5ZM41.477 18H41.5V16H41.477V18ZM41.8656 18.7212L42.4055 17.3714L40.5486 16.6286L40.0086 17.9784L41.8656 18.7212ZM40 20C40.86 20 41.5908 19.4577 41.8739 18.6997L40.0003 18L40 18V20ZM37 20H40V18H37V20ZM38 21.9999V19H36V21.9999H38ZM37.6075 21.2056L37.6075 21.2055L36.3925 22.7943L36.3926 22.7943L37.6075 21.2056ZM37.5767 22.817L37.5767 22.8169L36.4234 21.183L36.4233 21.183L37.5767 22.817ZM37.2001 23.3999L37.8 22.6L36.2 21.4L35.6 22.2L37.2001 23.3999ZM36.3 24.6L37.2001 23.4L35.6001 22.1999L34.7 23.4L36.3 24.6ZM35.4 25.8L36.3 24.6L34.7 23.4L33.8 24.6L35.4 25.8ZM35.0877 26.1306C35.2025 26.034 35.3074 25.9234 35.4 25.8L33.8 24.6L33.7995 24.6007L35.0877 26.1306ZM33.5 26.9C34.2661 26.9 34.9352 26.4892 35.3008 25.8806L33.5864 24.8507C33.5673 24.8824 33.5352 24.9 33.5 24.9V26.9ZM31.6992 25.8806C32.0648 26.4892 32.7339 26.9 33.5 26.9V24.9C33.4648 24.9 33.4327 24.8824 33.4136 24.8507L31.6992 25.8806ZM31.6 25.8C31.6926 25.9234 31.7975 26.0339 31.9122 26.1306L33.2005 24.6008L33.2 24.6L31.6 25.8ZM30.7 24.6L31.6 25.8L33.2 24.6L32.3 23.4L30.7 24.6ZM29.7999 23.4L30.7 24.6L32.3 23.4L31.3999 22.1999L29.7999 23.4ZM29.2 22.6L29.7999 23.3999L31.4 22.2L30.8 21.4L29.2 22.6ZM29.3176 22.731L29.3177 22.7311L30.6823 21.2689L30.6823 21.2689L29.3176 22.731ZM29.3916 21.2063L29.3915 21.2063L30.6084 22.7936L30.6084 22.7935L29.3916 21.2063ZM29 19V21.9999H31V19H29ZM27.0233 20H30V18H27.0233V20ZM25.8801 19.6572C26.22 19.8866 26.6272 20.0094 27.0464 19.9997L27.0001 18.0003C27.001 18.0002 27.0011 18.0004 27.0006 18.0002C27 18.0001 26.9995 17.9998 26.9992 17.9996L25.8801 19.6572ZM25.126 18.6996C25.2729 19.0929 25.5387 19.4258 25.8786 19.6562L27.0007 18.0006C27.0004 18.0004 26.9999 18 26.9996 17.9995C26.9992 17.9991 26.9994 17.9992 26.9997 18L25.126 18.6996ZM24.5945 17.3714L25.1344 18.7212L26.9913 17.9784L26.4514 16.6286L24.5945 17.3714ZM25.5 18H25.523V16H25.5V18ZM24.5 16.9426V17H26.5V16.9426H24.5ZM23.143 13.7428L24.5715 17.314L26.4285 16.5712L25 13L23.143 13.7428ZM23.0003 12.9542C22.9942 13.2177 23.0403 13.4858 23.143 13.7428L25 13L24.9997 13.0005L23.0003 12.9542ZM23 11V12.9773H25V11H23ZM23 10V11H25V10H23Z" fill="black" mask="url(#path-1-inside-1_4_259)"/>
<line x1="24.5" y1="2" x2="24.5" y2="10" stroke="black"/>
<line x1="42.5" y1="2" x2="42.5" y2="10" stroke="black"/>
<line x1="24" y1="12.5" x2="43" y2="12.5" stroke="black"/>
<line x1="30" y1="18.5" x2="37" y2="18.5" stroke="black"/>
<line x1="25" y1="57.5" x2="42" y2="57.5" stroke="black"/>
<path fill-rule="evenodd" clip-rule="evenodd" d="M43.9286 51C47.2817 51 50 47.9713 50 44.2353C50 40.9498 47.8978 38.2113 45.1103 37.5986C45.1318 37.3337 45.1429 37.0653 45.1429 36.7941C45.1429 31.9373 41.6091 28 37.25 28C34.6838 28 32.4037 29.3645 30.9621 31.4779C30.1197 30.9848 29.1605 30.7059 28.1429 30.7059C24.7897 30.7059 22.0714 33.7345 22.0714 37.4706C18.7183 37.4706 16 40.4993 16 44.2353C16 47.9713 18.7183 51 22.0714 51H28V56.5H39V51H43.9286ZM34.5 39.6031V56H32.5V39.6031L27.8057 44.8304C27.4367 45.2413 26.7768 45.3092 26.3318 44.9821C25.8869 44.655 25.8253 44.0567 26.1943 43.6458L32.6938 36.4082C32.8759 36.1607 33.1692 36 33.5 36C33.8308 36 34.1241 36.1607 34.3062 36.4082L40.8057 43.6458C41.1747 44.0567 41.1131 44.655 40.6682 44.9821C40.2232 45.3092 39.5633 45.2413 39.1943 44.8304L34.5 39.6031Z" fill="white"/>
<path d="M45.1103 37.5986L44.6119 37.5581L44.5765 37.9933L45.0029 38.087L45.1103 37.5986ZM30.9621 31.4779L30.7096 31.9094L31.1123 32.1451L31.3752 31.7596L30.9621 31.4779ZM22.0714 37.4706L22.0714 37.9706L22.5714 37.9706V37.4706H22.0714ZM28 51H28.5V50.5H28V51ZM28 56.5H27.5V57H28V56.5ZM39 56.5V57H39.5V56.5H39ZM39 51V50.5H38.5V51H39ZM34.5 39.6031L34.872 39.269L34 38.298V39.6031H34.5ZM34.5 56V56.5H35V56H34.5ZM32.5 56H32V56.5H32.5V56ZM32.5 39.6031H33V38.298L32.128 39.269L32.5 39.6031ZM27.8057 44.8304L28.1777 45.1645L28.1777 45.1645L27.8057 44.8304ZM26.3318 44.9821L26.0357 45.385L26.0357 45.385L26.3318 44.9821ZM26.1943 43.6458L26.5663 43.9799L26.5663 43.9799L26.1943 43.6458ZM32.6938 36.4082L33.0658 36.7423L33.0822 36.7241L33.0966 36.7044L32.6938 36.4082ZM34.3062 36.4082L33.9034 36.7044L33.9178 36.7241L33.9342 36.7423L34.3062 36.4082ZM40.8057 43.6458L40.4337 43.9799L40.4337 43.9799L40.8057 43.6458ZM40.6682 44.9821L40.9643 45.385L40.9643 45.385L40.6682 44.9821ZM39.1943 44.8304L39.5663 44.4963L39.5663 44.4963L39.1943 44.8304ZM49.5 44.2353C49.5 47.7474 46.9561 50.5 43.9286 50.5V51.5C47.6073 51.5 50.5 48.1953 50.5 44.2353H49.5ZM45.0029 38.087C47.5314 38.6427 49.5 41.1527 49.5 44.2353H50.5C50.5 40.7468 48.2642 37.7799 45.2176 37.1103L45.0029 38.087ZM44.6429 36.7941C44.6429 37.0518 44.6324 37.3066 44.6119 37.5581L45.6086 37.6392C45.6313 37.3608 45.6429 37.0789 45.6429 36.7941H44.6429ZM37.25 28.5C41.2835 28.5 44.6429 32.1612 44.6429 36.7941H45.6429C45.6429 31.7133 41.9347 27.5 37.25 27.5V28.5ZM31.3752 31.7596C32.7359 29.7647 34.8699 28.5 37.25 28.5V27.5C34.4977 27.5 32.0714 28.9643 30.5491 31.1961L31.3752 31.7596ZM28.1429 31.2059C29.0673 31.2059 29.9398 31.4589 30.7096 31.9094L31.2147 31.0463C30.2995 30.5108 29.2537 30.2059 28.1429 30.2059V31.2059ZM22.5714 37.4706C22.5714 33.9585 25.1153 31.2059 28.1429 31.2059V30.2059C24.4641 30.2059 21.5714 33.5106 21.5714 37.4706H22.5714ZM16.5 44.2353C16.5 40.7232 19.0439 37.9706 22.0714 37.9706L22.0714 36.9706C18.3927 36.9706 15.5 40.2753 15.5 44.2353H16.5ZM22.0714 50.5C19.0439 50.5 16.5 47.7474 16.5 44.2353H15.5C15.5 48.1953 18.3927 51.5 22.0714 51.5V50.5ZM28 50.5H22.0714V51.5H28V50.5ZM28.5 56.5V51H27.5V56.5H28.5ZM39 56H28V57H39V56ZM38.5 51V56.5H39.5V51H38.5ZM43.9286 50.5H39V51.5H43.9286V50.5ZM34 39.6031V56H35V39.6031H34ZM34.5 55.5H32.5V56.5H34.5V55.5ZM33 56V39.6031H32V56H33ZM32.128 39.269L27.4337 44.4963L28.1777 45.1645L32.872 39.9371L32.128 39.269ZM27.4337 44.4963C27.2366 44.7158 26.8657 44.754 26.628 44.5793L26.0357 45.385C26.6879 45.8645 27.6368 45.7668 28.1777 45.1645L27.4337 44.4963ZM26.628 44.5793C26.4211 44.4271 26.3947 44.171 26.5663 43.9799L25.8223 43.3117C25.2559 43.9424 25.3527 44.8829 26.0357 45.385L26.628 44.5793ZM26.5663 43.9799L33.0658 36.7423L32.3218 36.0741L25.8223 43.3117L26.5663 43.9799ZM33.0966 36.7044C33.1885 36.5795 33.3349 36.5 33.5 36.5V35.5C33.0034 35.5 32.5632 35.7418 32.291 36.112L33.0966 36.7044ZM33.5 36.5C33.6651 36.5 33.8115 36.5795 33.9034 36.7044L34.709 36.112C34.4368 35.7418 33.9966 35.5 33.5 35.5V36.5ZM33.9342 36.7423L40.4337 43.9799L41.1777 43.3117L34.6782 36.0741L33.9342 36.7423ZM40.4337 43.9799C40.6053 44.171 40.5789 44.4271 40.372 44.5793L40.9643 45.385C41.6473 44.8829 41.7441 43.9424 41.1777 43.3117L40.4337 43.9799ZM40.372 44.5793C40.1343 44.754 39.7634 44.7158 39.5663 44.4963L38.8223 45.1645C39.3632 45.7668 40.3121 45.8645 40.9643 45.385L40.372 44.5793ZM39.5663 44.4963L34.872 39.269L34.128 39.9371L38.8223 45.1645L39.5663 44.4963Z" fill="black"/>
</svg>
