<svg width="77" height="78" viewBox="0 0 77 78" fill="none" xmlns="http://www.w3.org/2000/svg">
<rect width="77" height="78" rx="8" fill="white"/>
<path d="M8.5 11H66.5" stroke="black" stroke-width="8" stroke-linecap="round"/>
<path d="M8.5 11L66.5 11" stroke="white" stroke-width="4" stroke-linecap="round"/>
<path d="M12.5 17.5L12.5 60" stroke="black" stroke-width="8" stroke-linecap="square"/>
<path d="M12.5 17L12.5 60" stroke="white" stroke-width="4" stroke-linecap="square"/>
<path d="M62.5 18L62.5 60" stroke="black" stroke-width="8" stroke-linecap="square"/>
<path d="M62.5 17L62.5 60" stroke="white" stroke-width="4" stroke-linecap="square"/>
<mask id="path-8-inside-1_3_31" fill="white">
<rect x="5.5" y="62" width="64" height="7" rx="1"/>
</mask>
<rect x="5.5" y="62" width="64" height="7" rx="1" fill="white" stroke="black" stroke-width="4" mask="url(#path-8-inside-1_3_31)"/>
<mask id="path-9-inside-2_3_31" fill="white">
<rect x="54.5" y="67" width="13" height="6" rx="1"/>
</mask>
<rect x="54.5" y="67" width="13" height="6" rx="1" fill="white" stroke="black" stroke-width="4" mask="url(#path-9-inside-2_3_31)"/>
<mask id="path-10-inside-3_3_31" fill="white">
<rect x="7.5" y="67" width="13" height="6" rx="1"/>
</mask>
<rect x="7.5" y="67" width="13" height="6" rx="1" fill="white" stroke="black" stroke-width="4" mask="url(#path-10-inside-3_3_31)"/>
<path d="M31.5 6H44.5C45.6046 6 46.5 6.89543 46.5 8V17H29.5V8C29.5 6.89543 30.3954 6 31.5 6Z" fill="white" stroke="black" stroke-width="2"/>
<path d="M31.5 23L44.5 23" stroke="black" stroke-width="2" stroke-linecap="round"/>
<path d="M29.5 18L31.5 23" stroke="black" stroke-width="2" stroke-linecap="round"/>
<path d="M47.4285 18.3714C47.6336 17.8586 47.3842 17.2766 46.8714 17.0715C46.3586 16.8664 45.7766 17.1158 45.5715 17.6286L47.4285 18.3714ZM45.4285 23.3714L47.4285 18.3714L45.5715 17.6286L43.5715 22.6286L45.4285 23.3714Z" fill="black"/>
<line x1="35.5" y1="23" x2="35.5" y2="27" stroke="black" stroke-width="2"/>
<line x1="40.5" y1="23" x2="40.5" y2="27" stroke="black" stroke-width="2"/>
<path d="M37.5 29C37.1686 29.4418 37.2582 30.0686 37.7 30.4C38.1418 30.7314 38.7686 30.6418 39.1 30.2L37.5 29ZM40.9001 27.8L41.5001 27L39.9001 25.7999L39.3001 26.5999L40.9001 27.8ZM39.1 30.2L40.9001 27.8L39.3001 26.5999L37.5 29L39.1 30.2Z" fill="black"/>
<path d="M36.9 30.2C37.2314 30.6418 37.8582 30.7314 38.3 30.4C38.7418 30.0686 38.8314 29.4418 38.5 29L36.9 30.2ZM36.6999 26.5999L36.0999 25.7999L34.4999 26.9999L35.0999 27.7999L36.6999 26.5999ZM38.5 29L36.6999 26.5999L35.0999 27.7999L36.9 30.2L38.5 29Z" fill="black"/>
<path d="M36.9 29.8C36.9 30.4075 37.3925 30.9 38 30.9C38.6075 30.9 39.1 30.4075 39.1 29.8H36.9ZM39.1 29.8V28.8H36.9V29.8H39.1Z" fill="black"/>
<mask id="path-20-inside-4_3_31" fill="white">
<path fill-rule="evenodd" clip-rule="evenodd" d="M48.4286 56C51.7817 56 54.5 52.9713 54.5 49.2353C54.5 45.9498 52.3978 43.2113 49.6103 42.5986C49.6318 42.3337 49.6429 42.0653 49.6429 41.7941C49.6429 36.9373 46.1091 33 41.75 33C39.1838 33 36.9037 34.3645 35.4621 36.4779C34.6197 35.9848 33.6605 35.7059 32.6429 35.7059C29.2897 35.7059 26.5714 38.7345 26.5714 42.4706C23.2183 42.4706 20.5 45.4993 20.5 49.2353C20.5 52.9713 23.2183 56 26.5714 56H48.4286Z"/>
</mask>
<path fill-rule="evenodd" clip-rule="evenodd" d="M48.4286 56C51.7817 56 54.5 52.9713 54.5 49.2353C54.5 45.9498 52.3978 43.2113 49.6103 42.5986C49.6318 42.3337 49.6429 42.0653 49.6429 41.7941C49.6429 36.9373 46.1091 33 41.75 33C39.1838 33 36.9037 34.3645 35.4621 36.4779C34.6197 35.9848 33.6605 35.7059 32.6429 35.7059C29.2897 35.7059 26.5714 38.7345 26.5714 42.4706C23.2183 42.4706 20.5 45.4993 20.5 49.2353C20.5 52.9713 23.2183 56 26.5714 56H48.4286Z" fill="white"/>
<path d="M49.6103 42.5986L47.6169 42.4364L47.4752 44.1771L49.1809 44.552L49.6103 42.5986ZM35.4621 36.4779L34.4519 38.204L36.0627 39.1466L37.1143 37.6049L35.4621 36.4779ZM26.5714 42.4706L26.5714 44.4706L28.5714 44.4706V42.4706H26.5714ZM52.5 49.2353C52.5 52.0756 50.4793 54 48.4286 54V58C53.0842 58 56.5 53.867 56.5 49.2353H52.5ZM49.1809 44.552C50.9323 44.937 52.5 46.7615 52.5 49.2353H56.5C56.5 45.138 53.8633 41.4857 50.0396 40.6453L49.1809 44.552ZM47.6429 41.7941C47.6429 42.0112 47.634 42.2254 47.6169 42.4364L51.6037 42.7609C51.6296 42.442 51.6429 42.1195 51.6429 41.7941H47.6429ZM41.75 35C44.8066 35 47.6429 37.833 47.6429 41.7941H51.6429C51.6429 36.0416 47.4116 31 41.75 31V35ZM37.1143 37.6049C38.2327 35.9653 39.9281 35 41.75 35V31C38.4395 31 35.5746 32.7637 33.8099 35.3509L37.1143 37.6049ZM32.6429 37.7059C33.2876 37.7059 33.9001 37.8811 34.4519 38.204L36.4723 34.7517C35.3392 34.0886 34.0334 33.7059 32.6429 33.7059V37.7059ZM28.5714 42.4706C28.5714 39.6302 30.5922 37.7059 32.6429 37.7059V33.7059C27.9872 33.7059 24.5714 37.8389 24.5714 42.4706H28.5714ZM22.5 49.2353C22.5 46.3949 24.5207 44.4706 26.5714 44.4706L26.5714 40.4706C21.9158 40.4706 18.5 44.6036 18.5 49.2353H22.5ZM26.5714 54C24.5207 54 22.5 52.0756 22.5 49.2353H18.5C18.5 53.867 21.9158 58 26.5714 58V54ZM48.4286 54H26.5714V58H48.4286V54Z" fill="black" mask="url(#path-20-inside-4_3_31)"/>
<line x1="38" y1="53" x2="38" y2="57" stroke="white" stroke-width="7"/>
<path d="M38.7071 42.2929C38.3166 41.9024 37.6834 41.9024 37.2929 42.2929L30.9289 48.6569C30.5384 49.0474 30.5384 49.6805 30.9289 50.0711C31.3195 50.4616 31.9526 50.4616 32.3431 50.0711L38 44.4142L43.6569 50.0711C44.0474 50.4616 44.6805 50.4616 45.0711 50.0711C45.4616 49.6805 45.4616 49.0474 45.0711 48.6569L38.7071 42.2929ZM39 62V43H37V62H39Z" fill="black"/>
<line x1="29.5" y1="62.25" x2="46.5" y2="62.25" stroke="black" stroke-width="1.5"/>
</svg>
