<svg width="66" height="68" viewBox="0 0 66 68" fill="none" xmlns="http://www.w3.org/2000/svg">
<mask id="path-1-inside-1_4_237" fill="white">
<path fill-rule="evenodd" clip-rule="evenodd" d="M42.8293 2C42.4175 0.834808 41.3062 0 40 0H27C25.6938 0 24.5825 0.834808 24.1707 2H4C1.79086 2 0 3.79086 0 6C0 8.20914 1.79086 10 4 10V12.5V55V57H2C1.44772 57 1 57.4477 1 58V63C1 63.5523 1.44772 64 2 64H3V67C3 67.5523 3.44772 68 4 68H15C15.5523 68 16 67.5523 16 67V64H50V67C50 67.5523 50.4477 68 51 68H62C62.5523 68 63 67.5523 63 67V64H64C64.5523 64 65 63.5523 65 63V58C65 57.4477 64.5523 57 64 57H62V55V13V10C64.2091 10 66 8.20914 66 6C66 3.79086 64.2091 2 62 2H42.8293ZM43 10V11V12.9773C43.003 13.1083 42.9802 13.242 42.9285 13.3714L41.5 16.9426V17H41.477L40.9371 18.3498C40.7953 18.7296 40.4292 19 40 19H37V21.9999L37.0001 22L37 22L36.4001 22.8L35.5 24L34.6 25.2C34.5533 25.2623 34.5007 25.3176 34.4436 25.3657C34.2513 25.6858 33.9007 25.9 33.5 25.9C33.0993 25.9 32.7487 25.6858 32.5564 25.3657C32.4993 25.3176 32.4467 25.2623 32.4 25.2L31.5 24L30.5999 22.7999L30 22L29.9999 21.9999L30 21.9999V19H27.0233C26.8143 19.0048 26.6102 18.9435 26.4397 18.8284C26.2691 18.7128 26.1361 18.5458 26.0629 18.3498L25.523 17H25.5V16.9426L24.0715 13.3714C24.0198 13.242 23.997 13.1083 24 12.9773V11V10H12V12.5V55V57H25V56.5H42V57H54V55V13V10H43ZM50 44.2353C50 47.9713 47.2817 51 43.9286 51H22.0714C18.7183 51 16 47.9713 16 44.2353C16 40.4993 18.7183 37.4706 22.0714 37.4706C22.0714 33.7345 24.7897 30.7059 28.1429 30.7059C29.1605 30.7059 30.1197 30.9848 30.9621 31.4779C32.4037 29.3645 34.6838 28 37.25 28C41.6091 28 45.1429 31.9373 45.1429 36.7941C45.1429 37.0653 45.1318 37.3337 45.1103 37.5986C47.8978 38.2113 50 40.9498 50 44.2353Z"/>
</mask>
<path fill-rule="evenodd" clip-rule="evenodd" d="M42.8293 2C42.4175 0.834808 41.3062 0 40 0H27C25.6938 0 24.5825 0.834808 24.1707 2H4C1.79086 2 0 3.79086 0 6C0 8.20914 1.79086 10 4 10V12.5V55V57H2C1.44772 57 1 57.4477 1 58V63C1 63.5523 1.44772 64 2 64H3V67C3 67.5523 3.44772 68 4 68H15C15.5523 68 16 67.5523 16 67V64H50V67C50 67.5523 50.4477 68 51 68H62C62.5523 68 63 67.5523 63 67V64H64C64.5523 64 65 63.5523 65 63V58C65 57.4477 64.5523 57 64 57H62V55V13V10C64.2091 10 66 8.20914 66 6C66 3.79086 64.2091 2 62 2H42.8293ZM43 10V11V12.9773C43.003 13.1083 42.9802 13.242 42.9285 13.3714L41.5 16.9426V17H41.477L40.9371 18.3498C40.7953 18.7296 40.4292 19 40 19H37V21.9999L37.0001 22L37 22L36.4001 22.8L35.5 24L34.6 25.2C34.5533 25.2623 34.5007 25.3176 34.4436 25.3657C34.2513 25.6858 33.9007 25.9 33.5 25.9C33.0993 25.9 32.7487 25.6858 32.5564 25.3657C32.4993 25.3176 32.4467 25.2623 32.4 25.2L31.5 24L30.5999 22.7999L30 22L29.9999 21.9999L30 21.9999V19H27.0233C26.8143 19.0048 26.6102 18.9435 26.4397 18.8284C26.2691 18.7128 26.1361 18.5458 26.0629 18.3498L25.523 17H25.5V16.9426L24.0715 13.3714C24.0198 13.242 23.997 13.1083 24 12.9773V11V10H12V12.5V55V57H25V56.5H42V57H54V55V13V10H43ZM50 44.2353C50 47.9713 47.2817 51 43.9286 51H22.0714C18.7183 51 16 47.9713 16 44.2353C16 40.4993 18.7183 37.4706 22.0714 37.4706C22.0714 33.7345 24.7897 30.7059 28.1429 30.7059C29.1605 30.7059 30.1197 30.9848 30.9621 31.4779C32.4037 29.3645 34.6838 28 37.25 28C41.6091 28 45.1429 31.9373 45.1429 36.7941C45.1429 37.0653 45.1318 37.3337 45.1103 37.5986C47.8978 38.2113 50 40.9498 50 44.2353Z" fill="white"/>
<path d="M42.8293 2L41.8865 2.33325L42.1221 3H42.8293V2ZM24.1707 2V3H24.8779L25.1135 2.33325L24.1707 2ZM4 10H5V9H4V10ZM4 57V58H5V57H4ZM3 64H4V63H3V64ZM16 64V63H15V64H16ZM50 64H51V63H50V64ZM63 64V63H62V64H63ZM62 57H61V58H62V57ZM62 10V9H61V10H62ZM43 10V9H42V10H43ZM43 12.9773H42V12.9889L42.0003 13.0005L43 12.9773ZM42.9285 13.3714L42 13L42 13L42.9285 13.3714ZM41.5 16.9426L40.5715 16.5712L40.5 16.75V16.9426H41.5ZM41.5 17V18H42.5V17H41.5ZM41.477 17V16H40.8L40.5486 16.6286L41.477 17ZM40.9371 18.3498L40.0086 17.9784L40.0043 17.9892L40.0003 18L40.9371 18.3498ZM37 19V18H36V19H37ZM37 21.9999H36V22.4941L36.3925 22.7943L37 21.9999ZM37.0001 22L37.5767 22.8169L38.6884 22.0322L37.6075 21.2056L37.0001 22ZM37 22L36.4233 21.183L36.2946 21.2739L36.2 21.4L37 22ZM36.4001 22.8L37.2001 23.4L37.2001 23.3999L36.4001 22.8ZM35.5 24L34.7 23.4L34.7 23.4L35.5 24ZM34.6 25.2L33.8 24.6L33.8 24.6L34.6 25.2ZM34.4436 25.3657L33.7995 24.6007L33.6721 24.708L33.5864 24.8507L34.4436 25.3657ZM32.5564 25.3657L33.4136 24.8507L33.3279 24.708L33.2005 24.6008L32.5564 25.3657ZM32.4 25.2L31.6 25.8L31.6 25.8L32.4 25.2ZM31.5 24L32.3 23.4L32.3 23.4L31.5 24ZM30.5999 22.7999L29.7999 23.3999L29.7999 23.4L30.5999 22.7999ZM30 22L30.8 21.4L30.747 21.3293L30.6823 21.2689L30 22ZM29.9999 21.9999L29.3915 21.2063L28.4541 21.925L29.3176 22.731L29.9999 21.9999ZM30 21.9999L30.6084 22.7935L31 22.4933V21.9999H30ZM30 19H31V18H30V19ZM27.0233 19V18H27.0117L27.0001 18.0003L27.0233 19ZM26.4397 18.8284L25.8786 19.6562L25.8801 19.6572L26.4397 18.8284ZM26.0629 18.3498L26.9997 18L26.9956 17.9891L26.9913 17.9784L26.0629 18.3498ZM25.523 17L26.4514 16.6286L26.2 16H25.523V17ZM25.5 17H24.5V18H25.5V17ZM25.5 16.9426H26.5V16.75L26.4285 16.5712L25.5 16.9426ZM24.0715 13.3714L25 13L25 13L24.0715 13.3714ZM24 12.9773L24.9997 13.0005L25 12.9889V12.9773H24ZM24 10H25V9H24V10ZM12 10V9H11V10H12ZM12 57H11V58H12V57ZM25 57V58H26V57H25ZM25 56.5V55.5H24V56.5H25ZM42 56.5H43V55.5H42V56.5ZM42 57H41V58H42V57ZM54 57V58H55V57H54ZM54 10H55V9H54V10ZM22.0714 37.4706V38.4706H23.0714V37.4706H22.0714ZM30.9621 31.4779L30.457 32.3409L31.2624 32.8123L31.7882 32.0414L30.9621 31.4779ZM45.1103 37.5986L44.1136 37.5175L44.0427 38.3879L44.8956 38.5753L45.1103 37.5986ZM40 1C40.8692 1 41.6114 1.5551 41.8865 2.33325L43.7721 1.66675C43.2235 0.114514 41.7432 -1 40 -1V1ZM27 1H40V-1H27V1ZM25.1135 2.33325C25.3886 1.5551 26.1307 1 27 1V-1C25.2568 -1 23.7765 0.114513 23.2279 1.66675L25.1135 2.33325ZM4 3H24.1707V1H4V3ZM1 6C1 4.34315 2.34315 3 4 3V1C1.23858 1 -1 3.23858 -1 6H1ZM4 9C2.34315 9 1 7.65685 1 6H-1C-1 8.76142 1.23858 11 4 11V9ZM5 12.5V10H3V12.5H5ZM5 55V12.5H3V55H5ZM5 57V55H3V57H5ZM2 58H4V56H2V58ZM2 58V56C0.89543 56 0 56.8954 0 58H2ZM2 63V58H0V63H2ZM2 63H0C0 64.1046 0.89543 65 2 65V63ZM3 63H2V65H3V63ZM4 67V64H2V67H4ZM4 67H2C2 68.1046 2.89543 69 4 69V67ZM15 67H4V69H15V67ZM15 67V69C16.1046 69 17 68.1046 17 67H15ZM15 64V67H17V64H15ZM50 63H16V65H50V63ZM51 67V64H49V67H51ZM51 67H49C49 68.1046 49.8954 69 51 69V67ZM62 67H51V69H62V67ZM62 67V69C63.1046 69 64 68.1046 64 67H62ZM62 64V67H64V64H62ZM64 63H63V65H64V63ZM64 63V65C65.1046 65 66 64.1046 66 63H64ZM64 58V63H66V58H64ZM64 58H66C66 56.8954 65.1046 56 64 56V58ZM62 58H64V56H62V58ZM61 55V57H63V55H61ZM61 13V55H63V13H61ZM61 10V13H63V10H61ZM65 6C65 7.65685 63.6569 9 62 9V11C64.7614 11 67 8.76142 67 6H65ZM62 3C63.6569 3 65 4.34315 65 6H67C67 3.23858 64.7614 1 62 1V3ZM42.8293 3H62V1H42.8293V3ZM44 11V10H42V11H44ZM44 12.9773V11H42V12.9773H44ZM43.857 13.7428C43.9598 13.4858 44.0058 13.2176 43.9997 12.9541L42.0003 13.0005L42 13L43.857 13.7428ZM42.4285 17.314L43.857 13.7428L42 13L40.5715 16.5712L42.4285 17.314ZM42.5 17V16.9426H40.5V17H42.5ZM41.477 18H41.5V16H41.477V18ZM41.8656 18.7212L42.4055 17.3714L40.5486 16.6286L40.0086 17.9784L41.8656 18.7212ZM40 20C40.86 20 41.5908 19.4577 41.8739 18.6997L40.0003 18L40 18V20ZM37 20H40V18H37V20ZM38 21.9999V19H36V21.9999H38ZM37.6075 21.2056L37.6075 21.2055L36.3925 22.7943L36.3926 22.7943L37.6075 21.2056ZM37.5767 22.817L37.5767 22.8169L36.4234 21.183L36.4233 21.183L37.5767 22.817ZM37.2001 23.3999L37.8 22.6L36.2 21.4L35.6 22.2L37.2001 23.3999ZM36.3 24.6L37.2001 23.4L35.6001 22.1999L34.7 23.4L36.3 24.6ZM35.4 25.8L36.3 24.6L34.7 23.4L33.8 24.6L35.4 25.8ZM35.0877 26.1306C35.2025 26.034 35.3074 25.9234 35.4 25.8L33.8 24.6L33.7995 24.6007L35.0877 26.1306ZM33.5 26.9C34.2661 26.9 34.9352 26.4892 35.3008 25.8806L33.5864 24.8507C33.5673 24.8824 33.5352 24.9 33.5 24.9V26.9ZM31.6992 25.8806C32.0648 26.4892 32.7339 26.9 33.5 26.9V24.9C33.4648 24.9 33.4327 24.8824 33.4136 24.8507L31.6992 25.8806ZM31.6 25.8C31.6926 25.9234 31.7975 26.0339 31.9122 26.1306L33.2005 24.6008L33.2 24.6L31.6 25.8ZM30.7 24.6L31.6 25.8L33.2 24.6L32.3 23.4L30.7 24.6ZM29.7999 23.4L30.7 24.6L32.3 23.4L31.3999 22.1999L29.7999 23.4ZM29.2 22.6L29.7999 23.3999L31.4 22.2L30.8 21.4L29.2 22.6ZM29.3176 22.731L29.3177 22.7311L30.6823 21.2689L30.6823 21.2689L29.3176 22.731ZM29.3916 21.2063L29.3915 21.2063L30.6084 22.7936L30.6084 22.7935L29.3916 21.2063ZM29 19V21.9999H31V19H29ZM27.0233 20H30V18H27.0233V20ZM25.8801 19.6572C26.22 19.8866 26.6272 20.0094 27.0464 19.9997L27.0001 18.0003C27.001 18.0002 27.0011 18.0004 27.0006 18.0002C27 18.0001 26.9995 17.9998 26.9992 17.9996L25.8801 19.6572ZM25.126 18.6996C25.2729 19.0929 25.5387 19.4258 25.8786 19.6562L27.0007 18.0006C27.0004 18.0004 26.9999 18 26.9996 17.9995C26.9992 17.9991 26.9994 17.9992 26.9997 18L25.126 18.6996ZM24.5945 17.3714L25.1344 18.7212L26.9913 17.9784L26.4514 16.6286L24.5945 17.3714ZM25.5 18H25.523V16H25.5V18ZM24.5 16.9426V17H26.5V16.9426H24.5ZM23.143 13.7428L24.5715 17.314L26.4285 16.5712L25 13L23.143 13.7428ZM23.0003 12.9542C22.9942 13.2177 23.0403 13.4858 23.143 13.7428L25 13L24.9997 13.0005L23.0003 12.9542ZM23 11V12.9773H25V11H23ZM23 10V11H25V10H23ZM12 11H24V9H12V11ZM13 12.5V10H11V12.5H13ZM13 55V12.5H11V55H13ZM13 57V55H11V57H13ZM25 56H12V58H25V56ZM24 56.5V57H26V56.5H24ZM42 55.5H25V57.5H42V55.5ZM43 57V56.5H41V57H43ZM54 56H42V58H54V56ZM53 55V57H55V55H53ZM53 13V55H55V13H53ZM53 10V13H55V10H53ZM43 11H54V9H43V11ZM43.9286 52C47.933 52 51 48.4192 51 44.2353H49C49 47.5235 46.6305 50 43.9286 50V52ZM22.0714 52H43.9286V50H22.0714V52ZM15 44.2353C15 48.4192 18.067 52 22.0714 52V50C19.3695 50 17 47.5235 17 44.2353H15ZM22.0714 36.4706C18.067 36.4706 15 40.0514 15 44.2353H17C17 40.9471 19.3695 38.4706 22.0714 38.4706V36.4706ZM28.1429 29.7059C24.1385 29.7059 21.0714 33.2867 21.0714 37.4706H23.0714C23.0714 34.1824 25.4409 31.7059 28.1429 31.7059V29.7059ZM31.4672 30.6148C30.4794 30.0367 29.347 29.7059 28.1429 29.7059V31.7059C28.974 31.7059 29.7599 31.933 30.457 32.3409L31.4672 30.6148ZM37.25 27C34.3117 27 31.7391 28.5641 30.136 30.9144L31.7882 32.0414C33.0682 30.1649 35.056 29 37.25 29V27ZM46.1429 36.7941C46.1429 31.4894 42.2603 27 37.25 27V29C40.9579 29 44.1429 32.3851 44.1429 36.7941H46.1429ZM46.107 37.6798C46.1307 37.3878 46.1429 37.0924 46.1429 36.7941H44.1429C44.1429 37.0383 44.1329 37.2795 44.1136 37.5175L46.107 37.6798ZM51 44.2353C51 40.5439 48.6305 37.3485 45.3249 36.622L44.8956 38.5753C47.165 39.0741 49 41.3556 49 44.2353H51Z" fill="black" mask="url(#path-1-inside-1_4_237)"/>
<line x1="24.5" y1="2" x2="24.5" y2="10" stroke="black"/>
<line x1="42.5" y1="2" x2="42.5" y2="10" stroke="black"/>
<line x1="24" y1="12.5" x2="43" y2="12.5" stroke="black"/>
<line x1="30" y1="18.5" x2="37" y2="18.5" stroke="black"/>
<line x1="25" y1="57.5" x2="42" y2="57.5" stroke="black"/>
<line x1="30" y1="50.5" x2="37" y2="50.5" stroke="white" stroke-width="12"/>
<path d="M34.2071 37.2929C33.8166 36.9024 33.1834 36.9024 32.7929 37.2929L26.4289 43.6569C26.0384 44.0474 26.0384 44.6805 26.4289 45.0711C26.8195 45.4616 27.4526 45.4616 27.8431 45.0711L33.5 39.4142L39.1569 45.0711C39.5474 45.4616 40.1805 45.4616 40.5711 45.0711C40.9616 44.6805 40.9616 44.0474 40.5711 43.6569L34.2071 37.2929ZM34.5 57V38H32.5V57H34.5Z" fill="black"/>
</svg>
