<svg width="66" height="68" viewBox="0 0 66 68" fill="none" xmlns="http://www.w3.org/2000/svg">
<path fill-rule="evenodd" clip-rule="evenodd" d="M24.1707 2C24.5825 0.834808 25.6938 0 27 0H40C41.3062 0 42.4175 0.834808 42.8293 2H62C64.2091 2 66 3.79086 66 6C66 8.20914 64.2091 10 62 10V13V55V57H64C64.5523 57 65 57.4477 65 58V63C65 63.5523 64.5523 64 64 64H63V67C63 67.5523 62.5523 68 62 68H51C50.4477 68 50 67.5523 50 67V64H16V67C16 67.5523 15.5523 68 15 68H4C3.44772 68 3 67.5523 3 67V64H2C1.44772 64 1 63.5523 1 63V58C1 57.4477 1.44772 57 2 57H4V55V12.5V10C1.79086 10 0 8.20914 0 6C0 3.79086 1.79086 2 4 2H24.1707ZM24 10H12V12.5V55V57H25V56.5H32.5V40.4142L27.8431 45.0711C27.4526 45.4616 26.8195 45.4616 26.4289 45.0711C26.0384 44.6805 26.0384 44.0474 26.4289 43.6569L32.7929 37.2929C33.1834 36.9024 33.8166 36.9024 34.2071 37.2929L40.5711 43.6569C40.9616 44.0474 40.9616 44.6805 40.5711 45.0711C40.1805 45.4616 39.5474 45.4616 39.1569 45.0711L34.5 40.4142V56.5H42V57H54V55V13V10H43V11V12.9773C43.003 13.1083 42.9802 13.242 42.9285 13.3714L41.5 16.9426V17H41.477L40.9371 18.3498C40.7953 18.7296 40.4292 19 40 19H37V21.9999L37.0001 22L37 22L36.4001 22.8L35.5 24L34.6 25.2C34.5533 25.2623 34.5007 25.3176 34.4436 25.3657C34.2513 25.6858 33.9007 25.9 33.5 25.9C33.0993 25.9 32.7487 25.6858 32.5564 25.3657C32.4993 25.3176 32.4467 25.2623 32.4 25.2L31.5 24L30.5999 22.7999L30 22L29.9999 21.9999L30 21.9999V19H27.0233C26.8143 19.0048 26.6102 18.9435 26.4397 18.8284C26.2691 18.7128 26.1361 18.5458 26.0629 18.3498L25.523 17H25.5V16.9426L24.0715 13.3714C24.0198 13.242 23.997 13.1083 24 12.9773V11V10ZM43.1169 37.4364L42.9752 39.1771L44.6809 39.552C46.4323 39.937 48 41.7615 48 44.2353C48 47.0756 45.9793 49 43.9286 49H37V51H43.9286C47.2817 51 50 47.9713 50 44.2353C50 40.9498 47.8978 38.2113 45.1103 37.5986C45.1318 37.3337 45.1429 37.0653 45.1429 36.7941C45.1429 31.9373 41.6091 28 37.25 28C34.6838 28 32.4037 29.3645 30.9621 31.4779C30.1197 30.9848 29.1605 30.7059 28.1429 30.7059C24.7897 30.7059 22.0714 33.7345 22.0714 37.4706C18.7183 37.4706 16 40.4993 16 44.2353C16 47.9713 18.7183 51 22.0714 51H30V49H22.0714C20.0207 49 18 47.0756 18 44.2353C18 41.3949 20.0207 39.4706 22.0714 39.4706L24.0714 39.4706V37.4706C24.0714 34.6302 26.0922 32.7059 28.1429 32.7059C28.7876 32.7059 29.4001 32.8811 29.9519 33.204L31.5627 34.1466L32.6143 32.6049C33.7327 30.9653 35.4281 30 37.25 30C40.3066 30 43.1429 32.833 43.1429 36.7941C43.1429 37.0112 43.134 37.2254 43.1169 37.4364Z" fill="white"/>
</svg>
