<svg width="100" height="100" viewBox="0 0 100 100" fill="none" xmlns="http://www.w3.org/2000/svg">
<path fill-rule="evenodd" clip-rule="evenodd" d="M28.5 26.5V22.5H20.5V26.5V69V73H28.5V69V26.5ZM26.5 26V24H22.5V26V69V71H26.5V69V26Z" fill="white"/>
<path fill-rule="evenodd" clip-rule="evenodd" d="M78.5 27V23H70.5V27V69V73H78.5V69V27ZM76.5 26V24H72.5V26V69V71H76.5V69V26Z" fill="white"/>
<mask id="path-3-inside-1_3_32" fill="white">
<rect x="17.5" y="71" width="64" height="7" rx="1"/>
</mask>
<rect x="17.5" y="71" width="64" height="7" rx="1" stroke="white" stroke-width="4" mask="url(#path-3-inside-1_3_32)"/>
<mask id="path-4-inside-2_3_32" fill="white">
<rect x="66.5" y="76" width="13" height="6" rx="1"/>
</mask>
<rect x="66.5" y="76" width="13" height="6" rx="1" stroke="white" stroke-width="4" mask="url(#path-4-inside-2_3_32)"/>
<mask id="path-5-inside-3_3_32" fill="white">
<rect x="19.5" y="76" width="13" height="6" rx="1"/>
</mask>
<rect x="19.5" y="76" width="13" height="6" rx="1" stroke="white" stroke-width="4" mask="url(#path-5-inside-3_3_32)"/>
<path d="M43.5 15H56.5C57.6046 15 58.5 15.8954 58.5 17V26H41.5V17C41.5 15.8954 42.3954 15 43.5 15Z" stroke="white" stroke-width="2"/>
<path d="M43.5 32L56.5 32" stroke="white" stroke-width="2" stroke-linecap="round"/>
<path d="M41.5 27L43.5 32" stroke="white" stroke-width="2" stroke-linecap="round"/>
<path d="M59.4285 27.3714C59.6336 26.8586 59.3842 26.2766 58.8714 26.0715C58.3586 25.8664 57.7766 26.1158 57.5715 26.6286L59.4285 27.3714ZM57.4285 32.3714L59.4285 27.3714L57.5715 26.6286L55.5715 31.6286L57.4285 32.3714Z" fill="white"/>
<line x1="47.5" y1="32" x2="47.5" y2="36" stroke="white" stroke-width="2"/>
<line x1="52.5" y1="32" x2="52.5" y2="36" stroke="white" stroke-width="2"/>
<path d="M49.5 38C49.1686 38.4418 49.2582 39.0686 49.7 39.4C50.1418 39.7314 50.7686 39.6418 51.1 39.2L49.5 38ZM52.9001 36.8L53.5001 36L51.9001 34.7999L51.3001 35.5999L52.9001 36.8ZM51.1 39.2L52.9001 36.8L51.3001 35.5999L49.5 38L51.1 39.2Z" fill="white"/>
<path d="M48.9 39.2C49.2314 39.6418 49.8582 39.7314 50.3 39.4C50.7418 39.0686 50.8314 38.4418 50.5 38L48.9 39.2ZM48.6999 35.5999L48.0999 34.7999L46.4999 35.9999L47.0999 36.7999L48.6999 35.5999ZM50.5 38L48.6999 35.5999L47.0999 36.7999L48.9 39.2L50.5 38Z" fill="white"/>
<path d="M48.9 38.8C48.9 39.4075 49.3925 39.9 50 39.9C50.6075 39.9 51.1 39.4075 51.1 38.8H48.9ZM51.1 38.8V37.8H48.9V38.8H51.1Z" fill="white"/>
<path fill-rule="evenodd" clip-rule="evenodd" d="M59.6169 51.4364L59.4752 53.1771L61.1809 53.552C62.9323 53.937 64.5 55.7615 64.5 58.2353C64.5 61.0756 62.4793 63 60.4286 63H53.5V65H60.4286C63.7817 65 66.5 61.9713 66.5 58.2353C66.5 54.9498 64.3978 52.2113 61.6103 51.5986C61.6318 51.3337 61.6429 51.0653 61.6429 50.7941C61.6429 45.9373 58.1091 42 53.75 42C51.1838 42 48.9037 43.3645 47.4621 45.4779C46.6197 44.9848 45.6605 44.7059 44.6429 44.7059C41.2897 44.7059 38.5714 47.7345 38.5714 51.4706C35.2183 51.4706 32.5 54.4993 32.5 58.2353C32.5 61.9713 35.2183 65 38.5714 65H46.5V63H38.5714C36.5207 63 34.5 61.0756 34.5 58.2353C34.5 55.3949 36.5207 53.4706 38.5714 53.4706L40.5714 53.4706V51.4706C40.5714 48.6302 42.5922 46.7059 44.6429 46.7059C45.2876 46.7059 45.9001 46.8811 46.4519 47.204L48.0627 48.1466L49.1143 46.6049C50.2327 44.9653 51.9281 44 53.75 44C56.8066 44 59.6429 46.833 59.6429 50.7941C59.6429 51.0112 59.634 51.2254 59.6169 51.4364Z" fill="white"/>
<path d="M50.7071 51.2929C50.3166 50.9024 49.6834 50.9024 49.2929 51.2929L42.9289 57.6569C42.5384 58.0474 42.5384 58.6805 42.9289 59.0711C43.3195 59.4616 43.9526 59.4616 44.3431 59.0711L50 53.4142L55.6569 59.0711C56.0474 59.4616 56.6805 59.4616 57.0711 59.0711C57.4616 58.6805 57.4616 58.0474 57.0711 57.6569L50.7071 51.2929ZM51 71V52H49V71H51Z" fill="white"/>
<line x1="41.5" y1="71.25" x2="58.5" y2="71.25" stroke="white" stroke-width="1.5"/>
<path fill-rule="evenodd" clip-rule="evenodd" d="M20.5 16C18.2909 16 16.5 17.7909 16.5 20C16.5 22.2091 18.2909 24 20.5 24H42.5V22H20.5C19.3954 22 18.5 21.1046 18.5 20C18.5 18.8954 19.3954 18 20.5 18H42.5V16H20.5ZM57.5 16V18H78.5C79.6046 18 80.5 18.8954 80.5 20C80.5 21.1046 79.6046 22 78.5 22H57.5V24H78.5C80.7091 24 82.5 22.2091 82.5 20C82.5 17.7909 80.7091 16 78.5 16H57.5Z" fill="white"/>
</svg>
