<svg width="66" height="68" viewBox="0 0 66 68" fill="none" xmlns="http://www.w3.org/2000/svg">
<mask id="path-1-inside-1_4_237" fill="white">
<path fill-rule="evenodd" clip-rule="evenodd" d="M24.1707 2C24.5825 0.834808 25.6938 0 27 0H40C41.3062 0 42.4175 0.834808 42.8293 2H62C64.2091 2 66 3.79086 66 6C66 8.20914 64.2091 10 62 10V13V55V57H64C64.5523 57 65 57.4477 65 58V63C65 63.5523 64.5523 64 64 64H63V67C63 67.5523 62.5523 68 62 68H51C50.4477 68 50 67.5523 50 67V64H16V67C16 67.5523 15.5523 68 15 68H4C3.44772 68 3 67.5523 3 67V64H2C1.44772 64 1 63.5523 1 63V58C1 57.4477 1.44772 57 2 57H4V55V12.5V10C1.79086 10 0 8.20914 0 6C0 3.79086 1.79086 2 4 2H24.1707ZM24 10H12V12.5V55V57H25V56.5H32.5V40.4142L27.8431 45.0711C27.4526 45.4616 26.8195 45.4616 26.4289 45.0711C26.0384 44.6805 26.0384 44.0474 26.4289 43.6569L32.7929 37.2929C33.1834 36.9024 33.8166 36.9024 34.2071 37.2929L40.5711 43.6569C40.9616 44.0474 40.9616 44.6805 40.5711 45.0711C40.1805 45.4616 39.5474 45.4616 39.1569 45.0711L34.5 40.4142V56.5H42V57H54V55V13V10H43V11V12.9773C43.003 13.1083 42.9802 13.242 42.9285 13.3714L41.5 16.9426V17H41.477L40.9371 18.3498C40.7953 18.7296 40.4292 19 40 19H37V21.9999L37.0001 22L37 22L36.4001 22.8L35.5 24L34.6 25.2C34.5533 25.2623 34.5007 25.3176 34.4436 25.3657C34.2513 25.6858 33.9007 25.9 33.5 25.9C33.0993 25.9 32.7487 25.6858 32.5564 25.3657C32.4993 25.3176 32.4467 25.2623 32.4 25.2L31.5 24L30.5999 22.7999L30 22L29.9999 21.9999L30 21.9999V19H27.0233C26.8143 19.0048 26.6102 18.9435 26.4397 18.8284C26.2691 18.7128 26.1361 18.5458 26.0629 18.3498L25.523 17H25.5V16.9426L24.0715 13.3714C24.0198 13.242 23.997 13.1083 24 12.9773V11V10ZM43.1169 37.4364L42.9752 39.1771L44.6809 39.552C46.4323 39.937 48 41.7615 48 44.2353C48 47.0756 45.9793 49 43.9286 49H37V51H43.9286C47.2817 51 50 47.9713 50 44.2353C50 40.9498 47.8978 38.2113 45.1103 37.5986C45.1318 37.3337 45.1429 37.0653 45.1429 36.7941C45.1429 31.9373 41.6091 28 37.25 28C34.6838 28 32.4037 29.3645 30.9621 31.4779C30.1197 30.9848 29.1605 30.7059 28.1429 30.7059C24.7897 30.7059 22.0714 33.7345 22.0714 37.4706C18.7183 37.4706 16 40.4993 16 44.2353C16 47.9713 18.7183 51 22.0714 51H30V49H22.0714C20.0207 49 18 47.0756 18 44.2353C18 41.3949 20.0207 39.4706 22.0714 39.4706L24.0714 39.4706V37.4706C24.0714 34.6302 26.0922 32.7059 28.1429 32.7059C28.7876 32.7059 29.4001 32.8811 29.9519 33.204L31.5627 34.1466L32.6143 32.6049C33.7327 30.9653 35.4281 30 37.25 30C40.3066 30 43.1429 32.833 43.1429 36.7941C43.1429 37.0112 43.134 37.2254 43.1169 37.4364Z"/>
</mask>
<path fill-rule="evenodd" clip-rule="evenodd" d="M24.1707 2C24.5825 0.834808 25.6938 0 27 0H40C41.3062 0 42.4175 0.834808 42.8293 2H62C64.2091 2 66 3.79086 66 6C66 8.20914 64.2091 10 62 10V13V55V57H64C64.5523 57 65 57.4477 65 58V63C65 63.5523 64.5523 64 64 64H63V67C63 67.5523 62.5523 68 62 68H51C50.4477 68 50 67.5523 50 67V64H16V67C16 67.5523 15.5523 68 15 68H4C3.44772 68 3 67.5523 3 67V64H2C1.44772 64 1 63.5523 1 63V58C1 57.4477 1.44772 57 2 57H4V55V12.5V10C1.79086 10 0 8.20914 0 6C0 3.79086 1.79086 2 4 2H24.1707ZM24 10H12V12.5V55V57H25V56.5H32.5V40.4142L27.8431 45.0711C27.4526 45.4616 26.8195 45.4616 26.4289 45.0711C26.0384 44.6805 26.0384 44.0474 26.4289 43.6569L32.7929 37.2929C33.1834 36.9024 33.8166 36.9024 34.2071 37.2929L40.5711 43.6569C40.9616 44.0474 40.9616 44.6805 40.5711 45.0711C40.1805 45.4616 39.5474 45.4616 39.1569 45.0711L34.5 40.4142V56.5H42V57H54V55V13V10H43V11V12.9773C43.003 13.1083 42.9802 13.242 42.9285 13.3714L41.5 16.9426V17H41.477L40.9371 18.3498C40.7953 18.7296 40.4292 19 40 19H37V21.9999L37.0001 22L37 22L36.4001 22.8L35.5 24L34.6 25.2C34.5533 25.2623 34.5007 25.3176 34.4436 25.3657C34.2513 25.6858 33.9007 25.9 33.5 25.9C33.0993 25.9 32.7487 25.6858 32.5564 25.3657C32.4993 25.3176 32.4467 25.2623 32.4 25.2L31.5 24L30.5999 22.7999L30 22L29.9999 21.9999L30 21.9999V19H27.0233C26.8143 19.0048 26.6102 18.9435 26.4397 18.8284C26.2691 18.7128 26.1361 18.5458 26.0629 18.3498L25.523 17H25.5V16.9426L24.0715 13.3714C24.0198 13.242 23.997 13.1083 24 12.9773V11V10ZM43.1169 37.4364L42.9752 39.1771L44.6809 39.552C46.4323 39.937 48 41.7615 48 44.2353C48 47.0756 45.9793 49 43.9286 49H37V51H43.9286C47.2817 51 50 47.9713 50 44.2353C50 40.9498 47.8978 38.2113 45.1103 37.5986C45.1318 37.3337 45.1429 37.0653 45.1429 36.7941C45.1429 31.9373 41.6091 28 37.25 28C34.6838 28 32.4037 29.3645 30.9621 31.4779C30.1197 30.9848 29.1605 30.7059 28.1429 30.7059C24.7897 30.7059 22.0714 33.7345 22.0714 37.4706C18.7183 37.4706 16 40.4993 16 44.2353C16 47.9713 18.7183 51 22.0714 51H30V49H22.0714C20.0207 49 18 47.0756 18 44.2353C18 41.3949 20.0207 39.4706 22.0714 39.4706L24.0714 39.4706V37.4706C24.0714 34.6302 26.0922 32.7059 28.1429 32.7059C28.7876 32.7059 29.4001 32.8811 29.9519 33.204L31.5627 34.1466L32.6143 32.6049C33.7327 30.9653 35.4281 30 37.25 30C40.3066 30 43.1429 32.833 43.1429 36.7941C43.1429 37.0112 43.134 37.2254 43.1169 37.4364Z" fill="white"/>
<path d="M24.1707 2V4H25.5851L26.0564 2.66649L24.1707 2ZM42.8293 2L40.9436 2.6665L41.4149 4H42.8293V2ZM62 10V8H60V10H62ZM62 57H60V59H62V57ZM63 64V62H61V64H63ZM50 64H52V62H50V64ZM16 64V62H14V64H16ZM3 64H5V62H3V64ZM4 57V59H6V57H4ZM4 10H6V8H4V10ZM12 10V8H10V10H12ZM24 10H26V8H24V10ZM12 57H10V59H12V57ZM25 57V59H27V57H25ZM25 56.5V54.5H23V56.5H25ZM32.5 56.5V58.5H34.5V56.5H32.5ZM32.5 40.4142H34.5V35.5858L31.0858 39L32.5 40.4142ZM27.8431 45.0711L26.4289 43.6569L26.4289 43.6569L27.8431 45.0711ZM26.4289 43.6569L25.0147 42.2426L25.0147 42.2426L26.4289 43.6569ZM34.5 40.4142L35.9142 39L32.5 35.5858V40.4142H34.5ZM34.5 56.5H32.5V58.5H34.5V56.5ZM42 56.5H44V54.5H42V56.5ZM42 57H40V59H42V57ZM54 57V59H56V57H54ZM54 10H56V8H54V10ZM43 10V8H41V10H43ZM43 12.9773H41V13.0005L41.0005 13.0236L43 12.9773ZM42.9285 13.3714L41.0715 12.6286L41.0715 12.6286L42.9285 13.3714ZM41.5 16.9426L39.643 16.1998L39.5 16.5574V16.9426H41.5ZM41.5 17V19H43.5V17H41.5ZM41.477 17V15H40.123L39.6201 16.2572L41.477 17ZM40.9371 18.3498L39.0801 17.6071L39.0716 17.6285L39.0635 17.6501L40.9371 18.3498ZM37 19V17H35V19H37ZM37 21.9999H35V22.9882L35.7851 23.5886L37 21.9999ZM37.0001 22L38.1534 23.6339L40.3768 22.0644L38.215 20.4112L37.0001 22ZM37 22L35.8466 20.3661L35.5891 20.5478L35.4 20.8L37 22ZM36.4001 22.8L38 24L38.0001 23.9999L36.4001 22.8ZM35.5 24L33.9 22.8L33.9 22.8L35.5 24ZM34.6 25.2L33 24L33 24L34.6 25.2ZM34.4436 25.3657L33.1553 23.8358L32.9006 24.0503L32.7292 24.3358L34.4436 25.3657ZM32.5564 25.3657L34.2708 24.3358L34.0994 24.0503L33.8447 23.8359L32.5564 25.3657ZM32.4 25.2L30.8 26.4L30.8 26.4L32.4 25.2ZM31.5 24L33.1 22.8L33.1 22.8L31.5 24ZM30.5999 22.7999L28.9999 23.9999L29 24L30.5999 22.7999ZM30 22L31.6 20.8L31.4939 20.6585L31.3646 20.5379L30 22ZM29.9999 21.9999L28.7831 20.4127L26.9082 21.8501L28.6353 23.4621L29.9999 21.9999ZM30 21.9999L31.2169 23.5871L32 22.9867V21.9999H30ZM30 19H32V17H30V19ZM27.0233 19V17H27.0001L26.977 17.0005L27.0233 19ZM26.4397 18.8284L25.3176 20.4839L25.3206 20.486L26.4397 18.8284ZM26.0629 18.3498L27.9365 17.6502L27.9284 17.6285L27.9198 17.607L26.0629 18.3498ZM25.523 17L27.3799 16.2572L26.877 15H25.523V17ZM25.5 17H23.5V19H25.5V17ZM25.5 16.9426H27.5V16.5574L27.357 16.1998L25.5 16.9426ZM24.0715 13.3714L25.9285 12.6286L25.9285 12.6286L24.0715 13.3714ZM24 12.9773L25.9995 13.0236L26 13.0005V12.9773H24ZM42.9752 39.1771L40.9818 39.0148L40.8401 40.7556L42.5458 41.1305L42.9752 39.1771ZM43.1169 37.4364L45.1103 37.5986L45.1103 37.5986L43.1169 37.4364ZM44.6809 39.552L45.1103 37.5986L45.1103 37.5986L44.6809 39.552ZM37 49V47H35V49H37ZM37 51H35V53H37V51ZM45.1103 37.5986L43.1169 37.4364L42.9752 39.1771L44.6809 39.552L45.1103 37.5986ZM30.9621 31.4779L29.9519 33.204L31.5627 34.1466L32.6143 32.6049L30.9621 31.4779ZM22.0714 37.4706V39.4706H24.0714V37.4706H22.0714ZM30 51V53H32V51H30ZM30 49H32V47H30V49ZM22.0714 39.4706L22.0714 37.4706H22.0714V39.4706ZM24.0714 39.4706L24.0714 41.4706L26.0714 41.4706V39.4706H24.0714ZM29.9519 33.204L28.9418 34.9301L28.9418 34.9301L29.9519 33.204ZM31.5627 34.1466L30.5525 35.8728L32.1632 36.8154L33.2149 35.2736L31.5627 34.1466ZM32.6143 32.6049L30.9621 31.4779L30.9621 31.4779L32.6143 32.6049ZM27 -2C24.8198 -2 22.9705 -0.605782 22.285 1.33351L26.0564 2.66649C26.1946 2.2754 26.5677 2 27 2V-2ZM40 -2H27V2H40V-2ZM44.715 1.3335C44.0295 -0.60578 42.1802 -2 40 -2V2C40.4323 2 40.8054 2.2754 40.9436 2.6665L44.715 1.3335ZM62 0H42.8293V4H62V0ZM68 6C68 2.68629 65.3137 0 62 0V4C63.1046 4 64 4.89543 64 6H68ZM62 12C65.3137 12 68 9.31371 68 6H64C64 7.10457 63.1046 8 62 8V12ZM64 13V10H60V13H64ZM64 55V13H60V55H64ZM64 57V55H60V57H64ZM64 55H62V59H64V55ZM67 58C67 56.3431 65.6569 55 64 55V59C63.4477 59 63 58.5523 63 58H67ZM67 63V58H63V63H67ZM64 66C65.6569 66 67 64.6569 67 63H63C63 62.4477 63.4477 62 64 62V66ZM63 66H64V62H63V66ZM65 67V64H61V67H65ZM62 70C63.6569 70 65 68.6569 65 67H61C61 66.4477 61.4477 66 62 66V70ZM51 70H62V66H51V70ZM48 67C48 68.6569 49.3431 70 51 70V66C51.5523 66 52 66.4477 52 67H48ZM48 64V67H52V64H48ZM16 66H50V62H16V66ZM18 67V64H14V67H18ZM15 70C16.6569 70 18 68.6569 18 67H14C14 66.4477 14.4477 66 15 66V70ZM4 70H15V66H4V70ZM1 67C1 68.6569 2.34315 70 4 70V66C4.55229 66 5 66.4477 5 67H1ZM1 64V67H5V64H1ZM2 66H3V62H2V66ZM-1 63C-1 64.6569 0.343145 66 2 66V62C2.55229 62 3 62.4477 3 63H-1ZM-1 58V63H3V58H-1ZM2 55C0.343145 55 -1 56.3431 -1 58H3C3 58.5523 2.55229 59 2 59V55ZM4 55H2V59H4V55ZM2 55V57H6V55H2ZM2 12.5V55H6V12.5H2ZM2 10V12.5H6V10H2ZM-2 6C-2 9.31371 0.686291 12 4 12V8C2.89543 8 2 7.10457 2 6H-2ZM4 0C0.686291 0 -2 2.68629 -2 6H2C2 4.89543 2.89543 4 4 4V0ZM24.1707 0H4V4H24.1707V0ZM12 12H24V8H12V12ZM14 12.5V10H10V12.5H14ZM14 55V12.5H10V55H14ZM14 57V55H10V57H14ZM25 55H12V59H25V55ZM23 56.5V57H27V56.5H23ZM32.5 54.5H25V58.5H32.5V54.5ZM30.5 40.4142V56.5H34.5V40.4142H30.5ZM29.2574 46.4853L33.9142 41.8284L31.0858 39L26.4289 43.6569L29.2574 46.4853ZM25.0147 46.4853C26.1863 47.6569 28.0858 47.6569 29.2574 46.4853L26.4289 43.6569C26.8195 43.2663 27.4526 43.2663 27.8431 43.6569L25.0147 46.4853ZM25.0147 42.2426C23.8431 43.4142 23.8431 45.3137 25.0147 46.4853L27.8431 43.6569C28.2337 44.0474 28.2337 44.6805 27.8431 45.0711L25.0147 42.2426ZM31.3787 35.8787L25.0147 42.2426L27.8431 45.0711L34.2071 38.7071L31.3787 35.8787ZM35.6213 35.8787C34.4497 34.7071 32.5503 34.7071 31.3787 35.8787L34.2071 38.7071C33.8166 39.0976 33.1834 39.0976 32.7929 38.7071L35.6213 35.8787ZM41.9853 42.2426L35.6213 35.8787L32.7929 38.7071L39.1569 45.0711L41.9853 42.2426ZM41.9853 46.4853C43.1569 45.3137 43.1569 43.4142 41.9853 42.2426L39.1569 45.0711C38.7663 44.6805 38.7663 44.0474 39.1569 43.6569L41.9853 46.4853ZM37.7426 46.4853C38.9142 47.6569 40.8137 47.6569 41.9853 46.4853L39.1569 43.6569C39.5474 43.2663 40.1805 43.2663 40.5711 43.6569L37.7426 46.4853ZM33.0858 41.8284L37.7426 46.4853L40.5711 43.6569L35.9142 39L33.0858 41.8284ZM36.5 56.5V40.4142H32.5V56.5H36.5ZM42 54.5H34.5V58.5H42V54.5ZM44 57V56.5H40V57H44ZM54 55H42V59H54V55ZM52 55V57H56V55H52ZM52 13V55H56V13H52ZM52 10V13H56V10H52ZM43 12H54V8H43V12ZM45 11V10H41V11H45ZM45 12.9773V11H41V12.9773H45ZM44.7854 14.1142C44.9393 13.7295 45.0086 13.3269 44.9995 12.9309L41.0005 13.0236C40.9974 12.8896 41.0211 12.7546 41.0715 12.6286L44.7854 14.1142ZM43.357 17.6854L44.7854 14.1142L41.0715 12.6286L39.643 16.1998L43.357 17.6854ZM43.5 17V16.9426H39.5V17H43.5ZM41.477 19H41.5V15H41.477V19ZM42.7941 19.0926L43.334 17.7428L39.6201 16.2572L39.0801 17.6071L42.7941 19.0926ZM40 21C41.2908 21 42.3864 20.1857 42.8107 19.0496L39.0635 17.6501C39.2042 17.2734 39.5676 17 40 17V21ZM37 21H40V17H37V21ZM39 21.9999V19H35V21.9999H39ZM38.215 20.4112L38.2149 20.4112L35.7851 23.5886L35.7852 23.5887L38.215 20.4112ZM38.1534 23.6339L38.1534 23.6339L35.8467 20.366L35.8466 20.3661L38.1534 23.6339ZM38.0001 23.9999L38.6 23.2L35.4 20.8L34.8 21.6L38.0001 23.9999ZM37.1 25.2L38 24L34.8001 21.5999L33.9 22.8L37.1 25.2ZM36.2 26.4L37.1 25.2L33.9 22.8L33 24L36.2 26.4ZM35.7319 26.8955C35.9042 26.7503 36.0616 26.5846 36.2 26.4L33 24C33.045 23.94 33.0972 23.8848 33.1553 23.8358L35.7319 26.8955ZM33.5 27.9C34.6315 27.9 35.6192 27.2926 36.1581 26.3955L32.7292 24.3358C32.8834 24.079 33.1698 23.9 33.5 23.9V27.9ZM30.8419 26.3955C31.3808 27.2926 32.3685 27.9 33.5 27.9V23.9C33.8302 23.9 34.1166 24.079 34.2708 24.3358L30.8419 26.3955ZM30.8 26.4C30.9384 26.5846 31.0958 26.7503 31.2681 26.8954L33.8447 23.8359C33.9028 23.8848 33.955 23.94 34 24L30.8 26.4ZM29.9 25.2L30.8 26.4L34 24L33.1 22.8L29.9 25.2ZM29 24L29.9 25.2L33.1 22.8L32.1999 21.5999L29 24ZM28.4 23.2L28.9999 23.9999L32.2 21.6L31.6 20.8L28.4 23.2ZM28.6353 23.4621L28.6354 23.4621L31.3646 20.5379L31.3646 20.5378L28.6353 23.4621ZM28.7831 20.4127L28.7831 20.4127L31.2168 23.5872L31.2169 23.5871L28.7831 20.4127ZM28 19V21.9999H32V19H28ZM27.0233 21H30V17H27.0233V21ZM25.3206 20.486C25.8298 20.8297 26.4401 21.014 27.0696 20.9995L26.977 17.0005C27.1886 16.9956 27.3907 17.0573 27.5587 17.1708L25.3206 20.486ZM24.1892 19.0494C24.4098 19.64 24.8083 20.1388 25.3176 20.4839L27.5617 17.1728C27.7298 17.2867 27.8624 17.4517 27.9365 17.6502L24.1892 19.0494ZM23.666 17.7428L24.2059 19.0925L27.9198 17.607L27.3799 16.2572L23.666 17.7428ZM25.5 19H25.523V15H25.5V19ZM23.5 16.9426V17H27.5V16.9426H23.5ZM22.2146 14.1142L23.643 17.6854L27.357 16.1998L25.9285 12.6286L22.2146 14.1142ZM22.0005 12.931C21.9914 13.327 22.0607 13.7296 22.2146 14.1142L25.9285 12.6286C25.9788 12.7545 26.0026 12.8896 25.9995 13.0236L22.0005 12.931ZM22 11V12.9773H26V11H22ZM22 10V11H26V10H22ZM44.9686 39.3394L45.1103 37.5986L41.1235 37.2741L40.9818 39.0148L44.9686 39.3394ZM45.1103 37.5986L43.4045 37.2237L42.5458 41.1305L44.2516 41.5054L45.1103 37.5986ZM50 44.2353C50 40.9381 47.8873 38.209 45.1103 37.5986L44.2516 41.5054C44.9773 41.6649 46 42.5849 46 44.2353H50ZM43.9286 51C47.2557 51 50 48.0002 50 44.2353H46C46 46.1511 44.7029 47 43.9286 47V51ZM37 51H43.9286V47H37V51ZM39 51V49H35V51H39ZM43.9286 49H37V53H43.9286V49ZM48 44.2353C48 47.0756 45.9793 49 43.9286 49V53C48.5842 53 52 48.867 52 44.2353H48ZM44.6809 39.552C46.4323 39.937 48 41.7615 48 44.2353H52C52 40.138 49.3633 36.4857 45.5396 35.6453L44.6809 39.552ZM43.1429 36.7941C43.1429 37.0112 43.134 37.2254 43.1169 37.4364L47.1037 37.7609C47.1296 37.442 47.1429 37.1195 47.1429 36.7941H43.1429ZM37.25 30C40.3066 30 43.1429 32.833 43.1429 36.7941H47.1429C47.1429 31.0416 42.9116 26 37.25 26V30ZM32.6143 32.6049C33.7327 30.9653 35.4281 30 37.25 30V26C33.9395 26 31.0746 27.7637 29.3099 30.3509L32.6143 32.6049ZM28.1429 32.7059C28.7876 32.7059 29.4001 32.8811 29.9519 33.204L31.9723 29.7517C30.8392 29.0886 29.5334 28.7059 28.1429 28.7059V32.7059ZM24.0714 37.4706C24.0714 34.6302 26.0922 32.7059 28.1429 32.7059V28.7059C23.4872 28.7059 20.0714 32.8389 20.0714 37.4706H24.0714ZM18 44.2353C18 41.3949 20.0207 39.4706 22.0714 39.4706V35.4706C17.4158 35.4706 14 39.6036 14 44.2353H18ZM22.0714 49C20.0207 49 18 47.0756 18 44.2353H14C14 48.867 17.4158 53 22.0714 53V49ZM30 49H22.0714V53H30V49ZM28 49V51H32V49H28ZM22.0714 51H30V47H22.0714V51ZM16 44.2353C16 48.0002 18.7444 51 22.0714 51V47C21.2971 47 20 46.1511 20 44.2353H16ZM22.0714 37.4706C18.7443 37.4706 16 40.4704 16 44.2353H20C20 42.3195 21.2971 41.4706 22.0714 41.4706V37.4706ZM24.0714 37.4706L22.0714 37.4706L22.0714 41.4706L24.0714 41.4706L24.0714 37.4706ZM22.0714 37.4706V39.4706H26.0714V37.4706H22.0714ZM28.1429 30.7059C24.8158 30.7059 22.0714 33.7057 22.0714 37.4706H26.0714C26.0714 35.5548 27.3686 34.7059 28.1429 34.7059V30.7059ZM30.9621 31.4779C30.1194 30.9847 29.1602 30.7059 28.1429 30.7059V34.7059C28.4149 34.7059 28.6809 34.7775 28.9418 34.9301L30.9621 31.4779ZM32.5729 32.4205L30.9621 31.4779L28.9418 34.9301L30.5525 35.8728L32.5729 32.4205ZM30.9621 31.4779L29.9105 33.0196L33.2149 35.2736L34.2666 33.7319L30.9621 31.4779ZM37.25 28C34.6865 28 32.4054 29.362 30.9621 31.4779L34.2666 33.7319C35.0601 32.5685 36.1697 32 37.25 32V28ZM45.1429 36.7941C45.1429 31.9172 41.591 28 37.25 28V32C39.0223 32 41.1429 33.7487 41.1429 36.7941H45.1429ZM45.1103 37.5986C45.1318 37.3337 45.1429 37.0654 45.1429 36.7941H41.1429C41.1429 36.957 41.1362 37.117 41.1235 37.2741L45.1103 37.5986Z" fill="black" mask="url(#path-1-inside-1_4_237)"/>
<line x1="25" y1="2" x2="25" y2="10" stroke="black" stroke-width="2"/>
<line x1="42" y1="2" x2="42" y2="10" stroke="black" stroke-width="2"/>
<line x1="24" y1="12" x2="43" y2="12" stroke="black" stroke-width="2"/>
<line x1="30" y1="18" x2="37" y2="18" stroke="black" stroke-width="2"/>
<line x1="5" y1="9" x2="12" y2="9" stroke="black" stroke-width="2"/>
<line x1="54" y1="9" x2="61" y2="9" stroke="black" stroke-width="2"/>
<line x1="5" y1="58" x2="12" y2="58" stroke="black" stroke-width="2"/>
<line x1="54" y1="58" x2="62" y2="58" stroke="black" stroke-width="2"/>
<line x1="25" y1="58" x2="42" y2="58" stroke="black" stroke-width="2"/>
<line x1="4" y1="63" x2="16" y2="63" stroke="black" stroke-width="2"/>
<line x1="50" y1="63" x2="63" y2="63" stroke="black" stroke-width="2"/>
</svg>
